<svg xmlns="http://www.w3.org/2000/svg" xmlns:xlink="http://www.w3.org/1999/xlink" width="200" zoomAndPan="magnify" viewBox="0 0 150 149.999998" height="200" preserveAspectRatio="xMidYMid meet" version="1.0"><defs><clipPath id="aa970dbdfd"><path d="M 63.796875 5.800781 L 144.421875 5.800781 L 144.421875 86.800781 L 63.796875 86.800781 Z M 63.796875 5.800781 " clip-rule="nonzero"/></clipPath><clipPath id="a6b4b986b1"><path d="M 5.574219 65.238281 L 84.324219 65.238281 L 84.324219 143.988281 L 5.574219 143.988281 Z M 5.574219 65.238281 " clip-rule="nonzero"/></clipPath><clipPath id="ebf87abf7d"><path d="M 32 97 L 75.054688 97 L 75.054688 118 L 32 118 Z M 32 97 " clip-rule="nonzero"/></clipPath><clipPath id="c32605dfbc"><path d="M 15.054688 83 L 70 83 L 70 131.71875 L 15.054688 131.71875 Z M 15.054688 83 " clip-rule="nonzero"/></clipPath><clipPath id="8fc2258e5f"><path d="M 45 77.71875 L 60 77.71875 L 60 96 L 45 96 Z M 45 77.71875 " clip-rule="nonzero"/></clipPath><clipPath id="afb9baa5fb"><path d="M 80.875 17 L 127 17 L 127 76 L 80.875 76 Z M 80.875 17 " clip-rule="nonzero"/></clipPath></defs><rect x="-15" width="180" fill="#ffffff" y="-15" height="179.999997" fill-opacity="1"/><rect x="-15" width="180" fill="#ffffff" y="-15" height="179.999997" fill-opacity="1"/><rect x="-15" width="180" fill="#81638b" y="-15" height="179.999997" fill-opacity="1"/><g clip-path="url(#aa970dbdfd)"><path fill="#cbb7ce" d="M 63.421875 46.300781 C 63.421875 47.625 63.484375 48.949219 63.617188 50.269531 C 63.746094 51.589844 63.941406 52.898438 64.199219 54.199219 C 64.457031 55.5 64.78125 56.785156 65.164062 58.054688 C 65.550781 59.324219 65.996094 60.570312 66.503906 61.796875 C 67.011719 63.023438 67.578125 64.21875 68.203125 65.390625 C 68.828125 66.558594 69.507812 67.695312 70.246094 68.800781 C 70.984375 69.902344 71.773438 70.964844 72.613281 71.992188 C 73.457031 73.015625 74.34375 74 75.28125 74.9375 C 76.21875 75.875 77.203125 76.765625 78.226562 77.605469 C 79.253906 78.449219 80.316406 79.238281 81.421875 79.972656 C 82.523438 80.710938 83.660156 81.390625 84.828125 82.015625 C 86 82.640625 87.195312 83.207031 88.421875 83.714844 C 89.648438 84.222656 90.894531 84.671875 92.164062 85.054688 C 93.433594 85.441406 94.71875 85.761719 96.019531 86.019531 C 97.320312 86.28125 98.628906 86.472656 99.949219 86.605469 C 101.269531 86.734375 102.59375 86.800781 103.921875 86.800781 C 105.246094 86.800781 106.570312 86.734375 107.890625 86.605469 C 109.210938 86.472656 110.519531 86.28125 111.820312 86.019531 C 113.121094 85.761719 114.40625 85.441406 115.675781 85.054688 C 116.945312 84.671875 118.195312 84.222656 119.417969 83.714844 C 120.644531 83.207031 121.84375 82.640625 123.011719 82.015625 C 124.183594 81.390625 125.316406 80.710938 126.421875 79.972656 C 127.523438 79.238281 128.589844 78.449219 129.613281 77.605469 C 130.640625 76.765625 131.621094 75.875 132.558594 74.9375 C 133.496094 74 134.386719 73.015625 135.226562 71.992188 C 136.070312 70.964844 136.859375 69.902344 137.59375 68.800781 C 138.332031 67.695312 139.011719 66.558594 139.636719 65.390625 C 140.261719 64.21875 140.832031 63.023438 141.335938 61.796875 C 141.84375 60.570312 142.292969 59.324219 142.675781 58.054688 C 143.0625 56.785156 143.382812 55.5 143.640625 54.199219 C 143.902344 52.898438 144.09375 51.589844 144.226562 50.269531 C 144.355469 48.949219 144.421875 47.625 144.421875 46.300781 C 144.421875 44.972656 144.355469 43.648438 144.226562 42.328125 C 144.09375 41.007812 143.902344 39.699219 143.640625 38.398438 C 143.382812 37.097656 143.0625 35.8125 142.675781 34.542969 C 142.292969 33.273438 141.84375 32.027344 141.335938 30.800781 C 140.832031 29.574219 140.261719 28.378906 139.636719 27.207031 C 139.011719 26.039062 138.332031 24.902344 137.59375 23.796875 C 136.859375 22.695312 136.070312 21.632812 135.226562 20.605469 C 134.386719 19.582031 133.496094 18.597656 132.558594 17.660156 C 131.621094 16.722656 130.640625 15.832031 129.613281 14.992188 C 128.589844 14.152344 127.523438 13.359375 126.421875 12.625 C 125.316406 11.886719 124.183594 11.207031 123.011719 10.582031 C 121.84375 9.957031 120.644531 9.390625 119.417969 8.882812 C 118.195312 8.375 116.945312 7.929688 115.675781 7.542969 C 114.40625 7.15625 113.121094 6.835938 111.820312 6.578125 C 110.519531 6.316406 109.210938 6.125 107.890625 5.992188 C 106.570312 5.863281 105.246094 5.800781 103.921875 5.800781 C 102.59375 5.800781 101.269531 5.863281 99.949219 5.992188 C 98.628906 6.125 97.320312 6.316406 96.019531 6.578125 C 94.71875 6.835938 93.433594 7.15625 92.164062 7.542969 C 90.894531 7.929688 89.648438 8.375 88.421875 8.882812 C 87.195312 9.390625 86 9.957031 84.828125 10.582031 C 83.660156 11.207031 82.523438 11.886719 81.421875 12.625 C 80.316406 13.359375 79.253906 14.152344 78.226562 14.992188 C 77.203125 15.832031 76.21875 16.722656 75.28125 17.660156 C 74.34375 18.597656 73.457031 19.582031 72.613281 20.605469 C 71.773438 21.632812 70.984375 22.695312 70.246094 23.796875 C 69.507812 24.902344 68.828125 26.039062 68.203125 27.207031 C 67.578125 28.378906 67.011719 29.574219 66.503906 30.800781 C 65.996094 32.027344 65.550781 33.273438 65.164062 34.542969 C 64.78125 35.8125 64.457031 37.097656 64.199219 38.398438 C 63.941406 39.699219 63.746094 41.007812 63.617188 42.328125 C 63.484375 43.648438 63.421875 44.972656 63.421875 46.300781 Z M 63.421875 46.300781 " fill-opacity="1" fill-rule="nonzero"/></g><g clip-path="url(#a6b4b986b1)"><path fill="#cbb7ce" d="M 84.324219 104.613281 C 84.324219 105.902344 84.257812 107.1875 84.132812 108.472656 C 84.007812 109.753906 83.816406 111.03125 83.566406 112.292969 C 83.316406 113.558594 83 114.808594 82.628906 116.042969 C 82.253906 117.277344 81.820312 118.488281 81.324219 119.679688 C 80.832031 120.871094 80.28125 122.035156 79.671875 123.175781 C 79.066406 124.3125 78.402344 125.417969 77.6875 126.488281 C 76.96875 127.5625 76.203125 128.59375 75.386719 129.59375 C 74.566406 130.589844 73.703125 131.542969 72.789062 132.457031 C 71.878906 133.367188 70.925781 134.230469 69.925781 135.050781 C 68.929688 135.867188 67.894531 136.636719 66.824219 137.351562 C 65.75 138.070312 64.644531 138.730469 63.507812 139.339844 C 62.371094 139.945312 61.207031 140.496094 60.015625 140.992188 C 58.824219 141.484375 57.613281 141.917969 56.378906 142.292969 C 55.144531 142.667969 53.894531 142.980469 52.628906 143.230469 C 51.363281 143.484375 50.089844 143.671875 48.808594 143.796875 C 47.523438 143.925781 46.238281 143.988281 44.949219 143.988281 C 43.65625 143.988281 42.371094 143.925781 41.089844 143.796875 C 39.804688 143.671875 38.53125 143.484375 37.265625 143.230469 C 36 142.980469 34.75 142.667969 33.519531 142.292969 C 32.285156 141.917969 31.070312 141.484375 29.878906 140.992188 C 28.6875 140.496094 27.523438 139.945312 26.386719 139.339844 C 25.25 138.730469 24.144531 138.070312 23.070312 137.351562 C 22 136.636719 20.964844 135.867188 19.96875 135.050781 C 18.972656 134.230469 18.015625 133.367188 17.105469 132.457031 C 16.195312 131.542969 15.328125 130.589844 14.511719 129.59375 C 13.691406 128.59375 12.925781 127.5625 12.207031 126.488281 C 11.492188 125.417969 10.828125 124.3125 10.222656 123.175781 C 9.613281 122.035156 9.0625 120.871094 8.570312 119.679688 C 8.078125 118.488281 7.644531 117.277344 7.269531 116.042969 C 6.894531 114.808594 6.582031 113.558594 6.328125 112.292969 C 6.078125 111.03125 5.890625 109.753906 5.761719 108.472656 C 5.636719 107.1875 5.574219 105.902344 5.574219 104.613281 C 5.574219 103.324219 5.636719 102.035156 5.761719 100.753906 C 5.890625 99.46875 6.078125 98.195312 6.328125 96.929688 C 6.582031 95.667969 6.894531 94.417969 7.269531 93.183594 C 7.644531 91.949219 8.078125 90.734375 8.570312 89.542969 C 9.0625 88.351562 9.613281 87.1875 10.222656 86.050781 C 10.828125 84.914062 11.492188 83.808594 12.207031 82.738281 C 12.925781 81.664062 13.691406 80.628906 14.511719 79.632812 C 15.328125 78.636719 16.195312 77.683594 17.105469 76.769531 C 18.015625 75.859375 18.972656 74.992188 19.96875 74.175781 C 20.964844 73.359375 22 72.589844 23.070312 71.875 C 24.144531 71.15625 25.25 70.496094 26.386719 69.886719 C 27.523438 69.28125 28.6875 68.730469 29.878906 68.234375 C 31.070312 67.742188 32.285156 67.308594 33.519531 66.933594 C 34.75 66.558594 36 66.246094 37.265625 65.996094 C 38.53125 65.742188 39.804688 65.554688 41.089844 65.425781 C 42.371094 65.300781 43.65625 65.238281 44.949219 65.238281 C 46.238281 65.238281 47.523438 65.300781 48.808594 65.425781 C 50.089844 65.554688 51.363281 65.742188 52.628906 65.996094 C 53.894531 66.246094 55.144531 66.558594 56.378906 66.933594 C 57.613281 67.308594 58.824219 67.742188 60.015625 68.234375 C 61.207031 68.730469 62.371094 69.28125 63.507812 69.886719 C 64.644531 70.496094 65.75 71.15625 66.824219 71.875 C 67.894531 72.589844 68.929688 73.359375 69.925781 74.175781 C 70.925781 74.992188 71.878906 75.859375 72.789062 76.769531 C 73.703125 77.683594 74.566406 78.636719 75.386719 79.632812 C 76.203125 80.628906 76.96875 81.664062 77.6875 82.738281 C 78.402344 83.808594 79.066406 84.914062 79.671875 86.050781 C 80.28125 87.1875 80.832031 88.351562 81.324219 89.542969 C 81.820312 90.734375 82.253906 91.949219 82.628906 93.183594 C 83 94.417969 83.316406 95.667969 83.566406 96.929688 C 83.816406 98.195312 84.007812 99.46875 84.132812 100.753906 C 84.257812 102.035156 84.324219 103.324219 84.324219 104.613281 Z M 84.324219 104.613281 " fill-opacity="1" fill-rule="nonzero"/></g><g clip-path="url(#ebf87abf7d)"><path fill="#f98c6c" d="M 32.066406 97.445312 C 33.058594 97.179688 75.027344 97.445312 75.027344 97.445312 L 72.351562 117.3125 L 34.648438 116.605469 Z M 32.066406 97.445312 " fill-opacity="1" fill-rule="nonzero"/></g><g clip-path="url(#c32605dfbc)"><path fill="#503459" d="M 69.507812 125.601562 C 69.507812 125.601562 67.8125 125.664062 65.160156 125.746094 C 65.089844 127.289062 64.765625 128.816406 63.824219 129.832031 C 63.238281 130.464844 62.472656 130.8125 61.695312 130.96875 C 60.214844 131.265625 58.601562 130.824219 57.480469 129.640625 C 56.605469 128.722656 56.070312 127.359375 56.058594 125.996094 C 53.90625 126.042969 51.660156 126.09375 49.476562 126.128906 C 49.425781 127.789062 49.164062 129.472656 47.957031 130.546875 C 46.894531 131.503906 45.28125 131.71875 43.929688 131.242188 C 42.582031 130.765625 41.507812 129.6875 40.824219 128.433594 C 40.453125 127.742188 40.203125 126.964844 40.121094 126.1875 C 36.667969 126.152344 34.324219 126.019531 34.277344 125.746094 C 34.121094 124.648438 28.496094 97.0625 28.03125 96.582031 C 27.5625 96.117188 15.304688 86.773438 15.304688 86.773438 C 15.078125 84.027344 17.421875 83.144531 17.421875 83.144531 C 17.421875 83.144531 30.957031 93.417969 31.457031 93.789062 C 31.960938 94.160156 38.246094 121.984375 38.246094 121.984375 L 69.507812 122.351562 C 69.507812 122.351562 69.402344 124.921875 69.507812 125.601562 Z M 69.507812 125.601562 " fill-opacity="1" fill-rule="nonzero"/></g><path fill="#fdddc8" d="M 50.382812 108.589844 L 47.445312 108.589844 C 47.40625 107.445312 47.371094 106.296875 47.335938 105.148438 L 50.285156 105.066406 C 50.324219 106.238281 50.347656 107.417969 50.382812 108.589844 Z M 61.097656 104.78125 L 58.148438 104.863281 C 58.113281 106.105469 58.078125 107.347656 58.039062 108.589844 L 60.980469 108.589844 C 61.015625 107.324219 61.050781 106.046875 61.097656 104.78125 Z M 55.566406 104.921875 L 52.699219 104.996094 C 52.664062 106.1875 52.628906 107.371094 52.59375 108.578125 L 55.519531 108.578125 C 55.542969 107.371094 55.554688 106.140625 55.566406 104.921875 Z M 58.292969 99.332031 C 58.265625 100.226562 58.242188 101.113281 58.21875 102.007812 L 61.183594 102.007812 C 61.207031 101.113281 61.242188 100.226562 61.265625 99.332031 Z M 52.820312 102.007812 L 55.601562 102.007812 C 55.617188 101.113281 55.628906 100.226562 55.640625 99.332031 L 52.9375 99.332031 C 52.890625 100.226562 52.855469 101.125 52.820312 102.007812 Z M 42.402344 111.386719 C 42.546875 112.507812 42.6875 113.632812 42.832031 114.742188 L 45.328125 114.789062 C 45.257812 113.632812 45.171875 112.484375 45.089844 111.328125 Z M 47.527344 111.289062 C 47.5625 112.472656 47.597656 113.65625 47.636719 114.839844 L 50.5625 114.898438 C 50.527344 113.679688 50.488281 112.449219 50.453125 111.230469 Z M 44.566406 105.222656 L 41.636719 105.292969 C 41.769531 106.390625 41.898438 107.492188 42.042969 108.589844 L 44.863281 108.589844 C 44.765625 107.46875 44.671875 106.34375 44.566406 105.222656 Z M 37.457031 111.480469 C 37.625 112.53125 37.789062 113.597656 37.96875 114.648438 L 40.730469 114.707031 C 40.550781 113.621094 40.371094 112.519531 40.203125 111.433594 Z M 39.273438 105.351562 L 36.558594 105.425781 C 36.703125 106.476562 36.859375 107.527344 37.015625 108.589844 L 39.761719 108.589844 C 39.59375 107.515625 39.4375 106.441406 39.273438 105.351562 Z M 36.128906 102.007812 L 38.792969 102.007812 C 38.664062 101.113281 38.542969 100.226562 38.421875 99.332031 L 35.832031 99.332031 C 35.914062 100.214844 36.023438 101.113281 36.128906 102.007812 Z M 64.480469 99.332031 C 64.371094 100.226562 64.277344 101.113281 64.179688 102.007812 L 67.167969 102.007812 C 67.277344 101.113281 67.371094 100.214844 67.464844 99.332031 Z M 68.304688 110.882812 C 68.074219 112.339844 67.835938 113.789062 67.597656 115.246094 L 70.332031 115.304688 C 70.585938 113.824219 70.824219 112.328125 71.0625 110.835938 Z M 63.90625 104.707031 C 63.773438 105.996094 63.667969 107.300781 63.546875 108.589844 L 66.367188 108.589844 C 66.535156 107.265625 66.691406 105.949219 66.855469 104.625 Z M 47.242188 102.007812 L 50.203125 102.007812 C 50.179688 101.113281 50.15625 100.226562 50.132812 99.332031 L 47.15625 99.332031 C 47.179688 100.226562 47.203125 101.113281 47.242188 102.007812 Z M 69.257812 104.5625 C 69.066406 105.902344 68.863281 107.253906 68.648438 108.589844 L 71.398438 108.589844 C 71.601562 107.226562 71.792969 105.855469 71.96875 104.492188 Z M 70.011719 99.332031 C 69.890625 100.226562 69.761719 101.125 69.640625 102.007812 L 72.304688 102.007812 C 72.414062 101.113281 72.507812 100.214844 72.605469 99.332031 Z M 41.253906 102.007812 L 44.242188 102.007812 C 44.144531 101.113281 44.050781 100.214844 43.941406 99.332031 L 40.957031 99.332031 C 41.050781 100.214844 41.148438 101.113281 41.253906 102.007812 Z M 52.546875 111.195312 C 52.519531 112.414062 52.496094 113.65625 52.472656 114.945312 L 55.449219 115.003906 C 55.460938 113.714844 55.484375 112.425781 55.496094 111.148438 Z M 63.355469 110.980469 C 63.25 112.367188 63.152344 113.761719 63.070312 115.148438 L 65.53125 115.195312 C 65.710938 113.773438 65.902344 112.355469 66.082031 110.933594 Z M 57.96875 111.085938 C 57.933594 112.402344 57.898438 113.726562 57.863281 115.042969 L 60.777344 115.101562 C 60.824219 113.738281 60.859375 112.378906 60.90625 111.027344 Z M 57.96875 111.085938 " fill-opacity="1" fill-rule="nonzero"/><g clip-path="url(#8fc2258e5f)"><path fill="#c2649d" d="M 59.308594 85.113281 C 56.953125 89.617188 55.699219 90.824219 53.011719 95.1875 C 51.050781 91.746094 47.585938 88.53125 45.628906 85.089844 C 46.871094 85.054688 48.101562 85.03125 49.332031 85.007812 C 49.257812 82.402344 49.222656 81.890625 49.140625 77.78125 C 51.160156 77.828125 53.777344 77.71875 55.792969 77.765625 C 56.035156 82.054688 56.285156 81.914062 56.523438 85.042969 C 57.457031 85.054688 58.375 85.078125 59.308594 85.113281 Z M 59.308594 85.113281 " fill-opacity="1" fill-rule="nonzero"/></g><g clip-path="url(#afb9baa5fb)"><path fill="#fbf3e8" d="M 96.921875 33.691406 C 96.851562 33.714844 96.785156 33.734375 96.714844 33.753906 C 96.785156 33.734375 96.851562 33.714844 96.921875 33.691406 Z M 105.394531 30.589844 C 104.664062 30.878906 103.9375 31.167969 103.210938 31.453125 C 103.9375 31.167969 104.664062 30.878906 105.394531 30.589844 Z M 123.636719 64.839844 C 121.917969 65.769531 120.027344 66.328125 118.203125 67.023438 C 114.828125 68.304688 111.621094 69.988281 108.238281 71.253906 C 103.28125 73.105469 98.21875 75.335938 92.898438 75.820312 C 89.886719 76.09375 86.640625 75.234375 84.015625 73.773438 C 81.429688 72.332031 82.503906 70.398438 82.363281 67.691406 C 82.246094 65.398438 82.078125 63.105469 82.019531 60.8125 C 81.972656 58.929688 82.539062 57.214844 82.417969 55.347656 C 82.117188 50.578125 81.285156 45.863281 80.976562 41.09375 C 80.875 39.5 81.703125 38.101562 83.046875 37.234375 C 82.886719 37.34375 82.738281 37.464844 82.597656 37.609375 C 82.636719 37.664062 82.675781 37.714844 82.71875 37.761719 C 82.863281 37.648438 83.011719 37.535156 83.175781 37.433594 C 83.332031 37.324219 83.511719 37.226562 83.738281 37.117188 L 83.753906 37.109375 C 84.652344 36.683594 85.753906 36.53125 86.820312 36.386719 C 87.460938 36.300781 88.121094 36.210938 88.722656 36.0625 C 89.277344 35.921875 89.839844 35.785156 90.398438 35.648438 L 90.722656 35.570312 C 91.386719 35.40625 92.050781 35.242188 92.71875 35.074219 L 92.882812 35.035156 L 92.929688 34.929688 C 94.015625 32.503906 94.460938 29.542969 94.855469 26.929688 C 95.058594 25.582031 95.25 24.308594 95.511719 23.171875 C 96.15625 20.460938 97.988281 17.542969 100.488281 17.542969 C 100.964844 17.542969 101.460938 17.648438 101.957031 17.855469 C 102.523438 18.125 103.035156 18.488281 103.5 18.917969 C 103.644531 18.941406 103.789062 18.972656 103.929688 19.007812 C 107.582031 19.878906 110.351562 24.101562 112.402344 26.898438 C 112.605469 27.15625 112.804688 27.414062 113.003906 27.679688 C 113.050781 27.742188 113.097656 27.808594 113.144531 27.871094 C 113.964844 27.46875 114.808594 27.089844 115.601562 27.089844 C 115.6875 27.089844 115.773438 27.09375 115.859375 27.101562 C 115.953125 27.113281 116.046875 27.128906 116.140625 27.148438 C 116.886719 27.316406 117.550781 27.789062 118.257812 28.289062 C 118.910156 28.753906 119.589844 29.234375 120.347656 29.453125 C 120.710938 29.554688 121.132812 29.601562 121.578125 29.652344 C 121.691406 29.664062 121.800781 29.675781 121.910156 29.6875 C 121.957031 29.695312 122.003906 29.699219 122.050781 29.707031 C 122.105469 29.710938 122.160156 29.71875 122.214844 29.726562 C 122.757812 29.804688 123.132812 29.910156 123.433594 30.066406 C 123.574219 30.140625 123.699219 30.230469 123.804688 30.328125 C 123.890625 30.410156 123.972656 30.5 124.050781 30.597656 C 124.125 30.566406 124.199219 30.539062 124.273438 30.507812 C 124.179688 30.382812 124.078125 30.265625 123.964844 30.15625 C 123.839844 30.039062 123.695312 29.941406 123.542969 29.859375 C 123.695312 29.941406 123.839844 30.039062 123.964844 30.15625 C 125.53125 31.640625 125.210938 34.695312 125.316406 36.636719 C 125.5 40.015625 125.601562 43.40625 125.863281 46.777344 C 126.089844 49.726562 125.835938 52.621094 125.882812 55.582031 C 125.933594 58.886719 127.367188 62.820312 123.636719 64.839844 Z M 103.074219 23.714844 C 103.019531 23.773438 102.96875 23.839844 102.917969 23.914062 C 101.972656 25.367188 102.398438 29.375 102.710938 31.648438 C 102.722656 31.730469 102.734375 31.808594 102.742188 31.886719 C 102.929688 31.816406 103.113281 31.742188 103.296875 31.671875 C 103.734375 31.5 104.171875 31.328125 104.609375 31.152344 L 105.671875 30.734375 L 105.621094 30.535156 C 105.125 28.539062 104.28125 25.769531 103.074219 23.714844 Z M 107.859375 26.601562 C 107.714844 26.421875 107.574219 26.25 107.429688 26.078125 C 107.546875 26.417969 107.664062 26.753906 107.773438 27.074219 C 107.878906 27.382812 107.984375 27.683594 108.085938 27.972656 C 108.253906 28.410156 108.421875 28.859375 108.59375 29.363281 L 108.671875 29.585938 L 108.894531 29.507812 C 109.167969 29.40625 109.441406 29.3125 109.710938 29.214844 C 109.667969 29.148438 109.628906 29.078125 109.582031 29.011719 C 109.328125 29.101562 109.070312 29.191406 108.816406 29.285156 C 109.070312 29.191406 109.328125 29.101562 109.582031 29.011719 C 109.027344 28.15625 108.449219 27.34375 107.859375 26.601562 Z M 96.347656 34.105469 L 96.78125 33.976562 C 96.78125 33.976562 96.953125 33.929688 96.988281 33.917969 C 97.300781 33.824219 97.632812 33.722656 98 33.601562 C 98.070312 33.578125 98.140625 33.554688 98.210938 33.53125 L 98.328125 33.496094 C 98.554688 33.417969 98.78125 33.34375 99.007812 33.265625 C 99.125 33.226562 99.242188 33.183594 99.359375 33.144531 L 99.386719 33.136719 C 99.40625 33.128906 99.429688 33.121094 99.449219 33.113281 C 99.441406 33.035156 99.433594 32.953125 99.421875 32.875 C 99.152344 30.488281 98.691406 28.128906 98.554688 26.117188 C 98.539062 25.902344 98.535156 25.679688 98.535156 25.453125 C 98.535156 25.160156 98.546875 24.859375 98.570312 24.558594 C 97.972656 26.292969 97.570312 28.554688 97.277344 30.484375 C 97.125 31.507812 96.851562 32.609375 96.492188 33.679688 Z M 92.714844 34.835938 C 92.695312 34.839844 92.679688 34.84375 92.660156 34.847656 C 92.679688 34.84375 92.695312 34.839844 92.714844 34.835938 Z M 88.664062 35.835938 C 89.328125 35.667969 89.996094 35.503906 90.667969 35.339844 C 89.996094 35.503906 89.328125 35.667969 88.664062 35.835938 C 87.085938 36.226562 85.132812 36.195312 83.660156 36.894531 C 83.652344 36.898438 83.644531 36.902344 83.636719 36.90625 C 83.644531 36.902344 83.652344 36.898438 83.65625 36.898438 C 85.132812 36.195312 87.085938 36.226562 88.664062 35.835938 Z M 88.664062 35.835938 " fill-opacity="1" fill-rule="nonzero"/></g><path fill="#503459" d="M 105.847656 24.433594 C 106.519531 25.027344 107.195312 25.769531 107.859375 26.601562 C 108.015625 27.050781 108.164062 27.484375 108.304688 27.894531 C 108.484375 28.351562 108.652344 28.816406 108.816406 29.285156 C 109.070312 29.191406 109.328125 29.101562 109.582031 29.011719 C 109.945312 29.570312 110.300781 30.144531 110.640625 30.722656 C 108.816406 31.21875 106.832031 31.785156 105.46875 32.253906 C 104.582031 32.554688 103.734375 32.863281 102.917969 33.167969 C 102.894531 32.957031 102.867188 32.75 102.839844 32.550781 C 102.804688 32.300781 102.757812 31.992188 102.710938 31.648438 C 102.878906 31.582031 103.042969 31.519531 103.210938 31.453125 C 103.9375 31.167969 104.664062 30.878906 105.394531 30.589844 C 104.773438 28.101562 103.941406 25.679688 102.917969 23.914062 C 103.425781 23.132812 104.324219 23.085938 105.847656 24.433594 Z M 115.257812 29.519531 L 120.265625 32.066406 C 120.265625 32.066406 121.640625 31.539062 124.273438 30.507812 C 124.179688 30.382812 124.078125 30.265625 123.964844 30.160156 C 123.839844 30.039062 123.695312 29.941406 123.542969 29.859375 C 123.164062 29.660156 122.710938 29.5625 122.246094 29.496094 C 122.191406 29.488281 122.136719 29.480469 122.082031 29.472656 C 122.03125 29.46875 121.984375 29.460938 121.9375 29.457031 C 121.386719 29.390625 120.84375 29.351562 120.410156 29.226562 C 118.914062 28.792969 117.710938 27.261719 116.191406 26.921875 C 116.089844 26.898438 115.988281 26.878906 115.882812 26.867188 C 114.9375 26.765625 113.960938 27.210938 113.003906 27.679688 C 113.5 28.339844 113.976562 29.023438 114.421875 29.730469 C 114.945312 29.597656 115.257812 29.519531 115.257812 29.519531 Z M 85.761719 39.542969 C 85.898438 39.644531 86.027344 39.761719 86.152344 39.882812 C 86.148438 39.878906 86.144531 39.875 86.140625 39.871094 C 90.722656 38.488281 94.664062 36.519531 99.574219 34.492188 C 99.535156 33.953125 99.484375 33.414062 99.421875 32.875 C 99.386719 32.886719 99.347656 32.902344 99.308594 32.914062 C 99.183594 32.957031 99.058594 33.003906 98.933594 33.042969 C 98.707031 33.121094 98.480469 33.199219 98.253906 33.273438 C 98.144531 33.308594 98.039062 33.34375 97.929688 33.378906 C 97.59375 33.488281 97.257812 33.59375 96.921875 33.691406 C 96.851562 33.714844 96.785156 33.734375 96.714844 33.753906 C 97.09375 32.632812 97.359375 31.519531 97.511719 30.519531 C 97.675781 29.433594 98 27.308594 98.535156 25.453125 C 98.535156 22.402344 99.800781 18.542969 103.429688 18.90625 C 103.597656 18.933594 103.765625 18.96875 103.929688 19.007812 C 103.375 18.441406 102.753906 17.972656 102.050781 17.640625 C 98.429688 16.132812 96.003906 20.078125 95.285156 23.121094 C 94.496094 26.535156 94.328125 31.226562 92.714844 34.835938 C 92.695312 34.839844 92.679688 34.84375 92.660156 34.847656 C 91.996094 35.015625 91.332031 35.179688 90.667969 35.339844 C 89.996094 35.503906 89.328125 35.667969 88.664062 35.835938 C 87.085938 36.226562 85.132812 36.195312 83.65625 36.898438 C 83.652344 36.898438 83.644531 36.902344 83.636719 36.90625 C 83.429688 37.007812 83.230469 37.113281 83.046875 37.234375 C 82.886719 37.34375 82.738281 37.464844 82.597656 37.609375 C 83.300781 38.609375 84.777344 38.804688 85.761719 39.542969 Z M 86.289062 40.023438 C 86.242188 39.976562 86.199219 39.929688 86.152344 39.882812 C 86.199219 39.929688 86.242188 39.976562 86.289062 40.023438 Z M 123.773438 35.726562 C 123.191406 36.355469 122.410156 36.546875 121.605469 36.726562 C 120.699219 36.929688 119.847656 37.203125 118.980469 37.539062 C 117.113281 38.269531 115.273438 39.078125 113.464844 39.945312 C 109.660156 41.769531 105.863281 43.617188 101.980469 45.273438 C 100.132812 46.0625 98.117188 46.617188 96.324219 47.503906 C 95.167969 48.078125 93.691406 48.730469 92.328125 48.644531 C 92.171875 46.964844 91.929688 45.289062 91.460938 43.671875 C 91.414062 43.511719 91.171875 43.578125 91.214844 43.738281 C 91.605469 45.335938 91.816406 46.964844 91.960938 48.605469 C 91.613281 48.546875 91.273438 48.433594 90.953125 48.25 C 90.304688 47.882812 89.789062 47.234375 89.273438 46.703125 C 88.726562 46.144531 88.117188 45.722656 87.453125 45.308594 C 86.019531 44.417969 84.414062 43.949219 82.78125 43.566406 C 82.65625 43.535156 82.605469 43.71875 82.726562 43.757812 C 84.535156 44.320312 86.253906 44.894531 87.847656 45.941406 C 89.136719 46.789062 89.953125 48.335938 91.457031 48.84375 C 91.632812 48.902344 91.8125 48.941406 91.992188 48.96875 C 92.066406 49.851562 92.121094 50.738281 92.179688 51.621094 C 92.359375 54.386719 92.539062 57.15625 92.773438 59.921875 C 93.007812 62.71875 93.382812 65.570312 93.261719 68.382812 C 93.222656 69.234375 93.132812 70.085938 93.035156 70.933594 C 92.988281 71.347656 92.933594 71.765625 92.867188 72.175781 C 92.84375 72.316406 92.707031 72.808594 92.808594 72.746094 C 92.617188 72.863281 92.792969 73.167969 92.984375 73.046875 C 93.296875 72.859375 93.292969 72.273438 93.335938 71.964844 C 93.46875 71.0625 93.554688 70.152344 93.625 69.246094 C 93.847656 66.519531 93.511719 63.753906 93.265625 61.039062 C 92.996094 58.011719 92.769531 54.976562 92.570312 51.941406 C 92.503906 50.964844 92.445312 49.984375 92.359375 49 C 93.464844 49.050781 94.640625 48.628906 95.59375 48.21875 C 97.628906 47.332031 99.726562 46.59375 101.777344 45.738281 C 105.800781 44.054688 109.710938 42.125 113.652344 40.265625 C 115.648438 39.324219 117.691406 38.441406 119.761719 37.660156 C 121.152344 37.136719 123.003906 37.171875 124.046875 36 C 124.214844 35.816406 123.945312 35.542969 123.773438 35.726562 Z M 123.773438 35.726562 " fill-opacity="1" fill-rule="nonzero"/><path fill="#f98c6c" d="M 99.574219 34.492188 C 99.683594 36.140625 99.648438 37.769531 99.296875 39.273438 C 98.035156 39.636719 96.777344 40.007812 95.535156 40.433594 C 93.179688 41.25 90.722656 44.035156 88.363281 42.390625 C 88.355469 42.382812 88.34375 42.375 88.332031 42.367188 C 88.285156 42.332031 88.238281 42.296875 88.191406 42.261719 C 88.167969 42.242188 88.144531 42.222656 88.121094 42.203125 C 88.089844 42.171875 88.058594 42.144531 88.023438 42.117188 C 88 42.09375 87.976562 42.070312 87.953125 42.046875 C 87.921875 42.019531 87.894531 41.992188 87.863281 41.960938 C 87.839844 41.9375 87.816406 41.914062 87.792969 41.886719 C 87.765625 41.855469 87.738281 41.828125 87.710938 41.796875 C 87.6875 41.769531 87.664062 41.746094 87.644531 41.71875 C 87.613281 41.6875 87.585938 41.652344 87.558594 41.621094 C 87.539062 41.59375 87.515625 41.570312 87.496094 41.546875 C 87.464844 41.507812 87.433594 41.464844 87.398438 41.425781 C 87.386719 41.40625 87.371094 41.390625 87.355469 41.371094 C 87.191406 41.160156 87.03125 40.941406 86.867188 40.726562 C 86.851562 40.703125 86.832031 40.679688 86.816406 40.65625 C 86.785156 40.621094 86.757812 40.585938 86.730469 40.546875 C 86.710938 40.523438 86.691406 40.496094 86.667969 40.46875 C 86.640625 40.4375 86.617188 40.402344 86.589844 40.367188 C 86.566406 40.339844 86.542969 40.3125 86.519531 40.289062 C 86.492188 40.253906 86.46875 40.222656 86.441406 40.191406 C 86.414062 40.164062 86.390625 40.136719 86.363281 40.105469 C 86.339844 40.078125 86.3125 40.050781 86.289062 40.023438 C 86.238281 39.972656 86.191406 39.921875 86.140625 39.871094 C 90.722656 38.488281 94.664062 36.519531 99.574219 34.492188 Z M 115.257812 29.519531 C 115.257812 29.519531 114.945312 29.597656 114.421875 29.730469 C 115.1875 30.941406 115.859375 32.21875 116.359375 33.5625 C 117.660156 33.070312 118.964844 32.570312 120.265625 32.066406 C 118.664062 31.058594 115.257812 29.519531 115.257812 29.519531 Z M 105.46875 32.253906 C 104.582031 32.554688 103.734375 32.863281 102.917969 33.167969 C 103.085938 34.710938 103.085938 36.511719 102.800781 38.261719 C 103.042969 38.191406 103.285156 38.117188 103.527344 38.039062 C 106.269531 37.179688 108.992188 36.253906 111.699219 35.28125 C 112.070312 35.148438 112.4375 35.011719 112.808594 34.878906 C 112.195312 33.546875 111.457031 32.117188 110.640625 30.722656 C 108.816406 31.21875 106.832031 31.785156 105.46875 32.253906 Z M 105.46875 32.253906 " fill-opacity="1" fill-rule="nonzero"/><path fill="#c2649d" d="M 119.179688 47.957031 C 122.03125 52.476562 115.507812 61.25 112.894531 63.816406 C 110.234375 62.140625 96.367188 54.648438 103.363281 50.632812 C 105.058594 49.242188 108.46875 49.953125 110.242188 51.898438 C 112.253906 48.195312 116.335938 43.269531 119.179688 47.957031 Z M 119.179688 47.957031 " fill-opacity="1" fill-rule="nonzero"/></svg>